<svg xmlns="http://www.w3.org/2000/svg" fill="currentColor" viewBox="0 0 16 17">
  <path  d="M1.085 5.919a2.5 2.5 0 0 1 1.768-3.063L6.716 1.82A2.5 2.5 0 0 1 9.78 3.59l.575 2.146H9.319l-.506-1.888a1.5 1.5 0 0 0-1.837-1.06L3.111 3.823a1.5 1.5 0 0 0-1.06 1.837l1.035 3.864a1.5 1.5 0 0 0 1.837 1.06l.076-.02v1.028a2.5 2.5 0 0 1-2.879-1.81L1.085 5.919ZM8 6.736a2 2 0 0 0-2 2v5a2 2 0 0 0 2 2h5a2 2 0 0 0 2-2v-5a2 2 0 0 0-2-2H8Zm-1 2a1 1 0 0 1 1-1h5a1 1 0 0 1 1 1v5a1 1 0 0 1-1 1H8a1 1 0 0 1-1-1v-5Zm4 .5a.5.5 0 0 0-1 0v1.5H8.5a.5.5 0 0 0 0 1H10v1.5a.5.5 0 1 0 1 0v-1.5h1.5a.5.5 0 0 0 0-1H11v-1.5Z"/>
</svg>